<?xml version="1.0" encoding="UTF-8"?>
<svg xmlns="http://www.w3.org/2000/svg" xmlns:xlink="http://www.w3.org/1999/xlink" width="192.76pt" height="192.76pt" viewBox="0 0 192.76 192.76" version="1.1">
<g id="surface1">
<path style=" stroke:none;fill-rule:evenodd;fill:rgb(100%,100%,100%);fill-opacity:1;" d="M 0 0.00390625 L 192.757813 0.00390625 L 192.757813 192.761719 L 0 192.761719 L 0 0.00390625 "/>
<path style=" stroke:none;fill-rule:evenodd;fill:rgb(92.89856%,10.998535%,14.099121%);fill-opacity:1;" d="M 134.15625 133.363281 L 134.15625 90.082031 L 121.09375 76.886719 C 118.242188 74.035156 113.449219 74.238281 110.65625 77.070313 L 82.972656 104.753906 L 77.511719 99.222656 C 74.773438 96.519531 70.609375 96.503906 68.035156 99.074219 C 65.445313 101.664063 65.445313 105.847656 68.035156 108.402344 L 78.714844 119.117188 C 81.582031 122.058594 86.171875 122.09375 89.003906 119.265625 L 110.285156 97.984375 C 113.800781 94.503906 118.558594 94.890625 121.609375 98.058594 C 124.757813 101.164063 125.328125 105.882813 121.648438 109.417969 L 115.964844 115.101563 L 134.15625 133.363281 "/>
<path style=" stroke:none;fill-rule:evenodd;fill:rgb(28.199768%,36.898804%,53.29895%);fill-opacity:1;" d="M 120.597656 108.433594 L 109.308594 119.675781 C 106.730469 122.25 102.492188 122.171875 100.265625 119.898438 L 95.398438 115.054688 L 111.269531 99.183594 C 113.9375 96.488281 118.113281 96.503906 120.679688 99.066406 C 123.242188 101.632813 123.371094 105.6875 120.597656 108.433594 "/>
<path style=" stroke:none;fill-rule:evenodd;fill:rgb(28.199768%,36.898804%,53.29895%);fill-opacity:1;" d="M 54.453125 133.363281 L 54.453125 90.082031 L 67.09375 77.292969 C 70.351563 74.035156 74.976563 74.074219 77.789063 76.886719 L 93.316406 92.375 L 83.0625 102.703125 L 78.585938 98.1875 C 75.105469 94.746094 70.148438 94.964844 67.019531 98.09375 C 63.910156 101.203125 63.800781 106.160156 67.054688 109.417969 L 72.679688 115.042969 L 54.453125 133.363281 "/>
<path style=" stroke:none;fill-rule:evenodd;fill:rgb(28.199768%,36.898804%,53.29895%);fill-opacity:1;" d="M 94.609375 59.398438 C 101.449219 59.398438 107.027344 64.976563 107.027344 71.816406 C 107.027344 78.65625 101.449219 84.234375 94.609375 84.234375 C 87.773438 84.234375 82.195313 78.65625 82.195313 71.816406 C 82.195313 64.976563 87.773438 59.398438 94.609375 59.398438 "/>
<path style=" stroke:none;fill-rule:evenodd;fill:rgb(28.199768%,36.898804%,53.29895%);fill-opacity:1;" d="M 52.324219 82.363281 L 52.324219 118.949219 C 52.308594 122.371094 49.679688 125.019531 46.3125 125.019531 L 33.652344 125 C 29.359375 124.980469 26.046875 121.6875 26.046875 117.449219 L 26.066406 115.5625 C 26.160156 114.472656 26.308594 113.914063 26.769531 113.0625 L 35.894531 96.707031 C 36.078125 96.226563 35.910156 95.855469 35.375 95.742188 L 32.15625 95.726563 C 28.695313 95.726563 26.066406 93.117188 26.066406 89.710938 L 26.066406 82.289063 C 26.046875 77.960938 29.121094 74.683594 33.433594 74.683594 L 44.980469 74.683594 C 49.273438 74.683594 52.34375 77.960938 52.324219 82.363281 Z M 43.628906 96.613281 L 43.628906 115.117188 C 43.609375 115.933594 43.296875 116.265625 42.648438 116.265625 L 36.300781 116.265625 C 35.910156 116.097656 35.542969 115.933594 35.617188 115.285156 L 42 96.113281 C 42.257813 95.1875 43.777344 94.910156 43.628906 96.613281 "/>
<path style=" stroke:none;fill-rule:evenodd;fill:rgb(28.199768%,36.898804%,53.29895%);fill-opacity:1;" d="M 9.558594 125 C 5.324219 124.980469 2.011719 121.6875 2.011719 117.375 L 2.027344 82.273438 C 2.011719 77.960938 5.324219 74.664063 9.632813 74.664063 L 16.40625 74.664063 C 20.570313 74.664063 23.882813 77.960938 23.863281 82.289063 L 23.882813 90.042969 C 23.921875 93.503906 21.238281 95.726563 17.71875 95.726563 L 11.984375 95.742188 C 11.132813 95.800781 10.855469 95.964844 10.746094 96.855469 L 10.746094 115.433594 C 10.964844 116.210938 11.167969 116.320313 12.113281 116.265625 L 13.648438 116.265625 L 21.941406 107.253906 C 22.847656 106.089844 23.921875 106.847656 23.863281 107.808594 L 23.863281 118.949219 C 23.863281 122.371094 21.238281 124.980469 17.867188 125 L 9.558594 125 "/>
<path style=" stroke:none;fill-rule:evenodd;fill:rgb(28.199768%,36.898804%,53.29895%);fill-opacity:1;" d="M 164.488281 82.289063 L 164.488281 119.023438 C 164.488281 122.371094 167.113281 125.019531 170.503906 125.019531 L 184.824219 125.019531 C 188.136719 125.019531 190.746094 122.371094 190.746094 119.023438 L 190.726563 82.289063 C 190.746094 78.035156 187.472656 74.664063 183.175781 74.664063 L 172.035156 74.664063 C 167.78125 74.664063 164.46875 77.960938 164.488281 82.289063 Z M 174.164063 95.742188 L 181.214844 95.742188 C 181.679688 95.742188 182.046875 96.113281 182.046875 96.578125 L 182.046875 115.433594 C 182.046875 115.894531 181.679688 116.265625 181.214844 116.265625 L 174.164063 116.265625 C 173.703125 116.265625 173.332031 115.894531 173.332031 115.433594 L 173.332031 96.578125 C 173.332031 96.113281 173.703125 95.742188 174.164063 95.742188 "/>
<path style=" stroke:none;fill-rule:evenodd;fill:rgb(28.199768%,36.898804%,53.29895%);fill-opacity:1;" d="M 162.414063 118.96875 L 162.414063 106.976563 C 162.414063 103.460938 160.285156 100.851563 156.9375 100.871094 L 145.980469 100.851563 C 145.316406 100.871094 144.945313 100.609375 144.890625 100.035156 L 144.890625 96.648438 C 144.890625 96.003906 145.113281 95.800781 145.796875 95.761719 L 156.363281 95.742188 C 159.785156 95.726563 162.414063 93.117188 162.414063 90.042969 L 162.433594 82.234375 C 162.453125 77.960938 159.140625 74.664063 154.847656 74.683594 L 143.742188 74.683594 C 139.449219 74.664063 136.136719 77.960938 136.15625 82.234375 L 136.15625 118.949219 C 136.15625 122.371094 138.78125 125.019531 142.1875 125.019531 L 156.398438 125.019531 C 159.769531 125.019531 162.414063 122.371094 162.414063 118.96875 Z M 145.871094 107.53125 L 152.589844 107.53125 C 153.160156 107.53125 153.589844 107.957031 153.589844 108.511719 L 153.589844 115.285156 C 153.589844 115.839844 153.160156 116.265625 152.589844 116.265625 L 145.871094 116.265625 C 145.316406 116.265625 144.890625 115.839844 144.890625 115.285156 L 144.890625 108.511719 C 144.890625 107.957031 145.316406 107.53125 145.871094 107.53125 "/>
</g>
</svg>
